<svg version="1.2" xmlns="http://www.w3.org/2000/svg" viewBox="68.898933095894 268.40784670791805 292.58560164753897 43.619993800936015" width="294" height="45">
    <defs>
    <linearGradient
      id="signapps-grad"
      gradientUnits="userSpaceOnUse"
      x1="68"
      y1="268"
      x2="292.6"
      y2="43.6"
    >
      <stop offset="0%" stop-color="#3dd6f5" />
      <stop offset="100%" stop-color="#8b5cf6" />
    </linearGradient>
  </defs>
    <style>.a{fill:#fefefe}.b{fill:#fbc00e}</style>
  <path class="a" d="m152.8 301.3v-26.3h3.7v26.3z"/>
  <path class="a" d="m187.7 305.5q0 3.6-1.1 5.1c-0.7 0.9-2.9 1.4-4.9 1.4h-15.5q-1.8 0-3-0.5-1.1-0.5-1.7-1.5-0.5-1-0.6-1.9c-0.2-0.7-0.2-3.3-0.2-4.2h3.9c0 1.3 0.1 3.1 0.5 3.6q0.7 0.7 2.4 0.7h13.8q1.6 0 2.1-0.5 0.5-0.6 0.5-2.2v-4.7h-11q-6.3 0-9.3-2-2.9-1.9-2.9-7.7v-6q0-5.8 2.9-7.7 3-2 9.3-2h1.6q6.1 0 9.4 3.5v-3.8l3.8-0.1zm-3.8-8.5v-8.1q0-9.7-9.4-9.7h-1.6c-1.9 0-2.4 0.1-3.4 0.2q-1.5 0.2-2.8 0.9-1.3 0.7-1.7 2.1c-0.4 0.9-0.5 1.2-0.5 2.8v4.9q0 2.4 0.5 3.7 0.4 1.4 1.7 2.1 1.3 0.7 2.8 0.9c1 0.1 1.5 0.2 3.4 0.2z"/>
  <path class="a" d="m205.3 279.2q-4.7 0-7 2.5-2.4 2.5-2.4 7.3v12.3h-3.8v-26.3h3.8v3.9q3.2-3.5 9.4-3.5h0.6q6.4 0 9.3 2 2.9 1.9 2.9 7.7v16.2h-3.7v-15.2q0-2.4-0.5-3.7-0.5-1.4-1.8-2.1-1.3-0.7-2.8-0.9c-1-0.1-1.5-0.2-3.4-0.2z"/>
  <path class="a" d="m234.7 284.6h8v-3.2q0-1.7-0.6-2.4-0.6-0.7-2.4-0.7h-7.7q-6.7 0-6.7 3.3c0 0.5 0 1.9 0 1.9h-2.9c0 0 0-1.5 0-1.9q0-3.2 2.5-4.7 2.6-1.5 6.7-1.5h8.5q3.2 0 4.3 1.6 1.2 1.5 1.2 5.4v18.9l-2.9-0.1v-3.9q-3.1 3.5-9.3 3.5h-5.1q-2.6 0-4.2-1.9-1.7-1.8-1.7-4.9 0-5.5 3-7.5 3-1.9 9.3-1.9zm0 2.8q-2.8 0-4.3 0.2-1.6 0.2-2.9 0.9-1.3 0.7-1.8 2-0.4 1.4-0.4 3.8 0 1.4 0.9 2.5 0.9 1.1 2.1 1.1h5.1q4.6 0 7-2.5 2.3-2.5 2.3-7.2v-0.8z"/>
  <path class="a" d="m276.9 291.1q0 5.8-2.9 7.7-3 2-9.2 2h-11.1v9.9h-2.8v-35.7h2.8v3.9q3.3-3.5 9.4-3.5h1.6q6.3 0 9.3 2 2.9 1.9 2.9 7.7zm-2.8-5.9q0-2.4-0.5-3.8-0.5-1.3-1.8-2-1.3-0.7-2.8-0.9-1.5-0.2-4.3-0.2h-1.6q-9.4 0-9.4 9.7v9.9h11.1q5.4 0 7.3-1.2 2-1.2 2-5.6z"/>
  <path class="a" d="m307.7 291.1q0 5.8-3 7.7-2.9 2-9.2 2h-11v9.9h-2.9v-35.7l2.9 0.1v3.8q3.2-3.5 9.4-3.5h1.6q6.3 0 9.2 2 3 1.9 3 7.7zm-2.9-5.9q0-2.4-0.5-3.8-0.4-1.3-1.7-2-1.3-0.7-2.8-0.9-1.5-0.2-4.3-0.2h-1.6q-9.4 0-9.4 9.7v9.9h11q5.4 0 7.4-1.2 1.9-1.2 1.9-5.6z"/>
  <path class="a" d="m317 300.8q-1.7 0-2.9-0.6-1.2-0.5-1.7-1.4-0.5-1-0.7-1.9c-0.1-0.7 0-3.6 0-4.5l2.8 0.1c0 1.3 0.1 4.1 0.5 4.6q0.7 0.8 2.4 0.8h13.7q3.2 0 3.2-4.1 0-2-0.9-3.3-0.9-1.3-2.3-1.3h-12.5q-7 0-7-7.1 0-3.3 1.7-5 1.7-1.7 5.9-1.7h12.4q1.7 0 2.9 0.6 1.2 0.5 1.7 1.5 0.5 1 0.7 1.9c0.1 0.6 0 3.2 0 4.1h-2.8c0-1.3-0.1-4-0.6-4.5q-0.6-0.7-2.3-0.7h-13.5q-3.3 0-3.3 3.8 0 2.1 0.9 3.2 0.9 1.1 2.4 1.1h12.4q3.9 0 5.5 2.1 1.6 2.2 1.6 5.3 0 3.4-1.8 5.2-1.7 1.8-5.8 1.8z"/>
  <path class="a" d="m128.5 300.8q-1.7 0-2.9-0.6-1.2-0.5-1.7-1.4-0.5-1-0.7-1.9c-0.1-0.7-0.1-3.6-0.1-4.5h4c0 1.3 0.1 3.2 0.3 3.8 0.3 0.6 0.9 0.8 1.5 0.8h12.7c2.2 0 3.2-0.4 3.2-3.2 0-3-2.3-3.6-3.2-3.6h-11.5c-4.7 0-7.1-3.4-7.1-8.1q0-3.3 1.7-5 1.7-1.7 6-1.7h12.3q1.8 0 3 0.6 1.1 0.5 1.7 1.5 0.5 1 0.7 1.9c0.1 0.6 0 3.2 0 4.1h-3.8c0-1.3-0.1-3-0.5-3.5q-0.7-0.8-2.4-0.8h-11.6c-2.2 0-3.3 0.4-3.3 2.9q0 2.1 0.9 3.2 0.9 1.1 2.4 1.1h11.5q3.8 0 5.4 2.1 1.6 2.2 1.6 5.3 0 3.4-1.7 5.2-1.7 1.8-5.9 1.8z"/>
  <path fill="url(#signapps-grad)" d="m88.8 305.2l-15.4-17.3 15.4-17.2-2.3-2.2-17.6 19.5 2.2 2.2 15.5 17.3z"/>
  <path fill="url(#signapps-grad)" d="m341.6 305.2l15.4-17.3-15.4-17.2 2.3-2.2 17.6 19.5-2.2 2.2h-0.1l-15.4 17.3z"/>
  <path fill="url(#signapps-grad)" d="m98.5 307.5l-3.5-1.7 18.8-37.4 3.5 1.8z"/>
</svg>