<svg xmlns="http://www.w3.org/2000/svg" viewBox="0 0 119.6 119.6">
  <defs>
    <linearGradient
      id="signapps-grad"
      gradientUnits="userSpaceOnUse"
      x1="0"
      y1="0"
      x2="119.6"
      y2="119.6"
    >
      <stop offset="0%" stop-color="#3dd6f5" />
      <stop offset="100%" stop-color="#8b5cf6" />
    </linearGradient>
  </defs>

  <g transform="translate(24.9,40.3)">
    <path fill="url(#signapps-grad)" d="m0 36.7l-15.4-17.3 15.4-17.2-2.3-2.2-17.6 19.5 2.2 2.2 15.5 17.3z" />
    <path fill="url(#signapps-grad)" d="m9.8 39l-3.5-1.7 18.8-37.4 3.5 1.8z" />
    <path fill="#ffffff" d="m39.8 32.3q-1.7 0-2.9-0.6-1.2-0.5-1.7-1.4-0.5-1-0.7-1.9c-0.1-0.7-0.1-3.6-0.1-4.5h4c0 1.3 0.1 3.2 0.3 3.8 0.3 0.6 0.9 0.8 1.5 0.8h12.7c2.2 0 3.2-0.4 3.2-3.2 0-3-2.3-3.6-3.2-3.6h-11.5c-4.7 0-7.1-3.4-7.1-8.1q0-3.3 1.7-5 1.7-1.7 6-1.7h12.3q1.8 0 3 0.6 1.1 0.5 1.7 1.5 0.5 1 0.7 1.9c0.1 0.6 0 3.2 0 4.1h-3.8c0-1.3-0.1-3-0.5-3.5q-0.7-0.8-2.4-0.8h-11.6c-2.2 0-3.3 0.4-3.3 2.9q0 2.1 0.9 3.2 0.9 1.1 2.4 1.1h11.5q3.8 0 5.4 2.1 1.6 2.2 1.6 5.3 0 3.4-1.7 5.2-1.7 1.8-5.9 1.8z" />
    <path fill="url(#signapps-grad)" d="m69.8 36.7l15.4-17.3-15.4-17.2 2.3-2.2 17.6 19.5-2.2 2.2h-0.1l-15.4 17.3z" />
  </g>
</svg>